<?xml version="1.0" encoding="utf-8"?>
<!-- Generator: Adobe Illustrator 18.1.1, SVG Export Plug-In . SVG Version: 6.00 Build 0)  -->
<svg version="1.1" id="Layer_1" xmlns="http://www.w3.org/2000/svg" xmlns:xlink="http://www.w3.org/1999/xlink" x="0px" y="0px"
	 viewBox="-223 25 512 512" enable-background="new -223 25 512 512" xml:space="preserve">
<path fill="#7ECC3A" d="M30.3,49.5c-126.2,0-228.5,102.3-228.5,228.5S-95.8,506.5,30.3,506.5S258.8,404.2,258.8,278
	S156.5,49.5,30.3,49.5z M170.7,296.7H49.1v121.7c0,10.3-8.4,18.8-18.8,18.8s-18.8-8.4-18.8-18.8V296.7H-110
	c-10.3,0-18.8-8.4-18.8-18.8s8.4-18.8,18.8-18.8H11.7V137.5c0-10.3,8.4-18.8,18.8-18.8c10.3,0,18.8,8.4,18.8,18.8v121.7h121.5
	c10.3,0,18.8,8.4,18.8,18.8S181,296.7,170.7,296.7z"/>
</svg>
